# xmcd CD database file
#
# Track frame offsets:
#	150
#	20085
#	42257
#	61742
#	78227
#	103917
#	122125
#	143187
#	161135
#	186395
#
# Disc length: 2642 seconds
#
# Revision: 0
# Processed by: cddbd v1.5.2PL0 Copyright (c) Steve Scherf et al.
# Submitted via: CDex 1.40Release
#
DISCID=8b0a500a
DTITLE=上田正樹 - Songs 〜男が女を愛する時〜
DYEAR=1983
DGENRE=Pop
TTITLE0=悲しい色やね
TTITLE1=ジェラス・ナイト
TTITLE2=レフト・アローン
TTITLE3=一緒に泣かないで
TTITLE4=シング・マイ・ソウル
TTITLE5=男が女を愛する時
TTITLE6=我が心のジョージア
TTITLE7=ブラザー・ルイ
TTITLE8=遥かなる河
TTITLE9=ユー・アー・ソー・ビューティフル
EXTD=YEAR: 1983 ID3G: 13
EXTT0=
EXTT1=
EXTT2=
EXTT3=
EXTT4=
EXTT5=
EXTT6=
EXTT7=
EXTT8=
EXTT9=
PLAYORDER=
